<?xml version="1.0" encoding="utf-8"?>
<svg version="1.1" id="Layer_2" xmlns="http://www.w3.org/2000/svg" xmlns:xlink="http://www.w3.org/1999/xlink" x="0px" y="0px"
     viewBox="0 0 100 100" enable-background="new 0 0 100 100" xml:space="preserve">
<g transform="translate(19, 26)">
    <path fill="#EF6456" d="M11,48H0V0h21.4c12.6,0,19.8,5.9,19.8,16.5c0,7.5-3.2,12.6-9.1,15.4L43.6,48H31.3l-9.1-13.5H10.6h-0.2V48z M19.6,24.6c6,0,9.4-2.5,9.4-8c0-5.4-3.4-8-9.4-8H11v16H19.6z"/>
    
    <g transform="translate(52, 12)">
        <path fill="#EF6456" d="M0,0h9v9H0V0z"/>
        <path fill="#EF6456" d="M0,17h9v9H0V17z"/>
    </g>
</g>
</svg>
